<svg xmlns="http://www.w3.org/2000/svg" xmlns:xlink="http://www.w3.org/1999/xlink" width="500" zoomAndPan="magnify" viewBox="0 0 375 374.999991" height="500" preserveAspectRatio="xMidYMid meet" version="1.0"><defs><g/><clipPath id="dc735701ed"><path d="M 172 163 L 203 163 L 203 187.304688 L 172 187.304688 Z M 172 163 " clip-rule="nonzero"/></clipPath><clipPath id="a0a2e100da"><path d="M 176 146.054688 L 187 146.054688 L 187 160 L 176 160 Z M 176 146.054688 " clip-rule="nonzero"/></clipPath><clipPath id="274c8e9484"><path d="M 188 146.054688 L 199 146.054688 L 199 160 L 188 160 Z M 188 146.054688 " clip-rule="nonzero"/></clipPath></defs><g clip-path="url(#dc735701ed)"><path fill="#231f20" d="M 195.996094 170.621094 C 193.140625 167.398438 191.925781 163.019531 187.503906 163.019531 C 183.078125 163.019531 181.867188 167.398438 179.011719 170.621094 C 176.453125 173.503906 172.429688 174.847656 172.429688 178.851562 C 172.429688 183.519531 176.25 187.304688 180.964844 187.304688 C 183.589844 187.304688 185.066406 184.28125 187.503906 184.28125 C 189.9375 184.28125 191.417969 187.304688 194.042969 187.304688 C 198.757812 187.304688 202.578125 183.519531 202.578125 178.851562 C 202.578125 174.847656 198.550781 173.503906 195.996094 170.621094 " fill-opacity="1" fill-rule="nonzero"/></g><g clip-path="url(#a0a2e100da)"><path fill="#231f20" d="M 186.59375 152.769531 C 186.59375 156.476562 184.265625 159.484375 181.386719 159.484375 C 178.511719 159.484375 176.179688 156.476562 176.179688 152.769531 C 176.179688 149.058594 178.511719 146.050781 181.386719 146.050781 C 184.265625 146.050781 186.59375 149.058594 186.59375 152.769531 " fill-opacity="1" fill-rule="nonzero"/></g><g clip-path="url(#274c8e9484)"><path fill="#231f20" d="M 198.824219 152.769531 C 198.824219 156.476562 196.492188 159.484375 193.617188 159.484375 C 190.742188 159.484375 188.410156 156.476562 188.410156 152.769531 C 188.410156 149.058594 190.742188 146.050781 193.617188 146.050781 C 196.492188 146.050781 198.824219 149.058594 198.824219 152.769531 " fill-opacity="1" fill-rule="nonzero"/></g><path fill="#231f20" d="M 176.789062 162.417969 C 177.496094 166.058594 175.777344 169.449219 172.953125 169.984375 C 170.128906 170.519531 167.269531 168.003906 166.5625 164.359375 C 165.859375 160.71875 167.574219 157.332031 170.398438 156.792969 C 173.222656 156.257812 176.082031 158.773438 176.789062 162.417969 " fill-opacity="1" fill-rule="nonzero"/><path fill="#231f20" d="M 208.085938 165.25 C 206.8125 168.738281 203.589844 170.785156 200.886719 169.816406 C 198.179688 168.847656 197.019531 165.238281 198.292969 161.75 C 199.5625 158.261719 202.789062 156.21875 205.492188 157.183594 C 208.195312 158.152344 209.355469 161.765625 208.085938 165.25 " fill-opacity="1" fill-rule="nonzero"/><g fill="#000000" fill-opacity="1"><g transform="translate(153.866607, 219.968859)"><g><path d="M 1.671875 0 C 1.671875 0 1.671875 -5.816406 1.671875 -17.453125 C 1.671875 -17.453125 3.113281 -17.453125 6 -17.453125 C 7.1875 -17.453125 8.117188 -17.382812 8.796875 -17.25 C 9.484375 -17.125 10.085938 -16.894531 10.609375 -16.5625 C 11.316406 -16.101562 11.863281 -15.484375 12.25 -14.703125 C 12.632812 -13.929688 12.828125 -13.054688 12.828125 -12.078125 C 12.828125 -11.035156 12.609375 -10.09375 12.171875 -9.25 C 11.742188 -8.40625 11.148438 -7.769531 10.390625 -7.34375 C 9.910156 -7.082031 9.34375 -6.898438 8.6875 -6.796875 C 8.039062 -6.691406 7.128906 -6.640625 5.953125 -6.640625 L 4.921875 -6.640625 L 4.921875 0 Z M 4.921875 -9.734375 L 5.859375 -9.734375 C 6.847656 -9.734375 7.585938 -9.8125 8.078125 -9.96875 C 8.535156 -10.09375 8.894531 -10.335938 9.15625 -10.703125 C 9.425781 -11.066406 9.5625 -11.5 9.5625 -12 C 9.5625 -12.550781 9.425781 -13.019531 9.15625 -13.40625 C 8.882812 -13.800781 8.515625 -14.066406 8.046875 -14.203125 C 7.585938 -14.304688 6.90625 -14.359375 6 -14.359375 L 4.921875 -14.359375 Z M 4.921875 -9.734375 "/></g></g></g><g fill="#000000" fill-opacity="1"><g transform="translate(173.709069, 219.968859)"><g><path d="M 1.671875 0 C 1.671875 0 1.671875 -5.816406 1.671875 -17.453125 C 1.671875 -17.453125 4.796875 -17.453125 11.046875 -17.453125 C 11.046875 -17.453125 11.046875 -16.421875 11.046875 -14.359375 C 11.046875 -14.359375 9.003906 -14.359375 4.921875 -14.359375 C 4.921875 -14.359375 4.921875 -12.988281 4.921875 -10.25 C 4.921875 -10.25 6.878906 -10.25 10.796875 -10.25 C 10.796875 -10.25 10.796875 -9.21875 10.796875 -7.15625 C 10.796875 -7.15625 8.835938 -7.15625 4.921875 -7.15625 C 4.921875 -7.15625 4.921875 -5.800781 4.921875 -3.09375 C 4.921875 -3.09375 6.960938 -3.09375 11.046875 -3.09375 C 11.046875 -3.09375 11.046875 -2.0625 11.046875 0 C 11.046875 0 7.921875 0 1.671875 0 Z M 1.671875 0 "/></g></g></g><g fill="#000000" fill-opacity="1"><g transform="translate(192.397857, 219.968859)"><g><path d="M 3.40625 0 C 3.40625 0 3.40625 -4.785156 3.40625 -14.359375 C 3.40625 -14.359375 2.320312 -14.359375 0.15625 -14.359375 C 0.15625 -14.359375 0.15625 -15.390625 0.15625 -17.453125 C 0.15625 -17.453125 3.394531 -17.453125 9.875 -17.453125 C 9.875 -17.453125 9.875 -16.421875 9.875 -14.359375 C 9.875 -14.359375 8.796875 -14.359375 6.640625 -14.359375 C 6.640625 -14.359375 6.640625 -9.570312 6.640625 0 C 6.640625 0 5.5625 0 3.40625 0 Z M 3.40625 0 "/></g></g></g><g fill="#000000" fill-opacity="1"><g transform="translate(208.74469, 219.968859)"><g><path d="M 0.453125 -4.984375 C 0.453125 -4.984375 1.578125 -4.984375 3.828125 -4.984375 C 3.960938 -3.535156 4.75 -2.8125 6.1875 -2.8125 C 6.894531 -2.8125 7.460938 -3.003906 7.890625 -3.390625 C 8.328125 -3.785156 8.546875 -4.300781 8.546875 -4.9375 C 8.546875 -5.71875 8.257812 -6.328125 7.6875 -6.765625 C 7.425781 -6.953125 7.15625 -7.109375 6.875 -7.234375 C 6.59375 -7.359375 5.878906 -7.628906 4.734375 -8.046875 C 3.554688 -8.484375 2.648438 -9.109375 2.015625 -9.921875 C 1.390625 -10.742188 1.078125 -11.703125 1.078125 -12.796875 C 1.078125 -14.179688 1.566406 -15.351562 2.546875 -16.3125 C 3.535156 -17.28125 4.742188 -17.765625 6.171875 -17.765625 C 7.003906 -17.765625 7.789062 -17.585938 8.53125 -17.234375 C 9.269531 -16.890625 9.875 -16.40625 10.34375 -15.78125 C 10.664062 -15.351562 10.90625 -14.910156 11.0625 -14.453125 C 11.21875 -13.992188 11.3125 -13.441406 11.34375 -12.796875 L 7.984375 -12.796875 C 7.929688 -13.390625 7.742188 -13.847656 7.421875 -14.171875 C 7.097656 -14.492188 6.671875 -14.65625 6.140625 -14.65625 C 5.609375 -14.65625 5.175781 -14.488281 4.84375 -14.15625 C 4.507812 -13.820312 4.34375 -13.394531 4.34375 -12.875 C 4.34375 -12.21875 4.679688 -11.679688 5.359375 -11.265625 C 5.503906 -11.171875 6.132812 -10.921875 7.25 -10.515625 C 8.125 -10.179688 8.75 -9.910156 9.125 -9.703125 C 9.507812 -9.503906 9.867188 -9.242188 10.203125 -8.921875 C 11.242188 -7.984375 11.765625 -6.773438 11.765625 -5.296875 C 11.765625 -3.722656 11.226562 -2.394531 10.15625 -1.3125 C 9.082031 -0.226562 7.757812 0.3125 6.1875 0.3125 C 5.226562 0.3125 4.332031 0.117188 3.5 -0.265625 C 2.675781 -0.660156 2.015625 -1.210938 1.515625 -1.921875 C 1.171875 -2.378906 0.914062 -2.835938 0.75 -3.296875 C 0.59375 -3.753906 0.492188 -4.316406 0.453125 -4.984375 Z M 0.453125 -4.984375 "/></g></g></g></svg>